<svg width="580" height="550" viewBox="0 0 580 550" fill="none" xmlns="http://www.w3.org/2000/svg">
<g id="WAN 2.1">
<path d="M40 42C40 40.8954 40.8954 40 42 40H538C539.105 40 540 40.8954 540 42V508C540 509.105 539.105 510 538 510H42C40.8954 510 40 509.105 40 508V42Z" fill="#444444"/>
<path d="M42 40V41H538V40V39H42V40ZM540 42H539V508H540H541V42H540ZM538 510V509H42V510V511H538V510ZM40 508H41V42H40H39V508H40ZM42 510V509C41.4477 509 41 508.552 41 508H40H39C39 509.657 40.3432 511 42 511V510ZM540 508H539C539 508.552 538.552 509 538 509V510V511C539.657 511 541 509.657 541 508H540ZM538 40V41C538.552 41 539 41.4477 539 42H540H541C541 40.3431 539.657 39 538 39V40ZM42 40V39C40.3432 39 39 40.3431 39 42H40H41C41 41.4477 41.4477 41 42 41V40Z" fill="white" fill-opacity="0.1"/>
<g id="G3 Global structure/style">
<g id="blocks.40">
<g id="Block">
<rect id="Rectangle 1" x="461" y="465" width="50" height="21" fill="#D9D9D9"/>
<text id="Block Text" fill="black" xml:space="preserve" style="white-space: pre" font-family="Inter" font-size="8" letter-spacing="-0.02em"><tspan x="461" y="472.909">Block 40</tspan></text>
</g>
<text id="blocks.40.sf" fill="black" xml:space="preserve" style="white-space: pre" font-family="Inter" font-size="8" letter-spacing="-0.02em"><tspan x="461" y="483.909">SF: 1.0</tspan></text>
</g>
<g id="blocks.39">
<g id="Block_2">
<rect id="Rectangle 1_2" x="461" y="442" width="50" height="21" fill="#D9D9D9"/>
<text id="Block Text_2" fill="black" xml:space="preserve" style="white-space: pre" font-family="Inter" font-size="8" letter-spacing="-0.02em"><tspan x="461" y="449.909">Block 39</tspan></text>
</g>
<text id="blocks.39.sf" fill="black" xml:space="preserve" style="white-space: pre" font-family="Inter" font-size="8" letter-spacing="-0.02em"><tspan x="461" y="460.909">SF: 1.0</tspan></text>
</g>
<g id="blocks.38">
<g id="Block_3">
<rect id="Rectangle 1_3" x="461" y="419" width="50" height="21" fill="#D9D9D9"/>
<text id="Block Text_3" fill="black" xml:space="preserve" style="white-space: pre" font-family="Inter" font-size="8" letter-spacing="-0.02em"><tspan x="461" y="426.909">Block 38</tspan></text>
</g>
<text id="blocks.38.sf" fill="black" xml:space="preserve" style="white-space: pre" font-family="Inter" font-size="8" letter-spacing="-0.02em"><tspan x="461" y="437.909">SF: 1.0</tspan></text>
</g>
<g id="blocks.37">
<g id="Block_4">
<rect id="Rectangle 1_4" x="461" y="396" width="50" height="21" fill="#D9D9D9"/>
<text id="Block Text_4" fill="black" xml:space="preserve" style="white-space: pre" font-family="Inter" font-size="8" letter-spacing="-0.02em"><tspan x="461" y="403.909">Block 37</tspan></text>
</g>
<text id="blocks.37.sf" fill="black" xml:space="preserve" style="white-space: pre" font-family="Inter" font-size="8" letter-spacing="-0.02em"><tspan x="461" y="414.909">SF: 1.0</tspan></text>
</g>
<g id="blocks.36">
<g id="Block_5">
<rect id="Rectangle 1_5" x="408" y="465" width="50" height="21" fill="#D9D9D9"/>
<text id="Block Text_5" fill="black" xml:space="preserve" style="white-space: pre" font-family="Inter" font-size="8" letter-spacing="-0.02em"><tspan x="408" y="472.909">Block 36</tspan></text>
</g>
<text id="blocks.36.sf" fill="black" xml:space="preserve" style="white-space: pre" font-family="Inter" font-size="8" letter-spacing="-0.02em"><tspan x="408" y="483.909">SF: 1.0</tspan></text>
</g>
<g id="blocks.35">
<g id="Block_6">
<rect id="Rectangle 1_6" x="408" y="442" width="50" height="21" fill="#D9D9D9"/>
<text id="Block Text_6" fill="black" xml:space="preserve" style="white-space: pre" font-family="Inter" font-size="8" letter-spacing="-0.02em"><tspan x="408" y="449.909">Block 35</tspan></text>
</g>
<text id="blocks.35.sf" fill="black" xml:space="preserve" style="white-space: pre" font-family="Inter" font-size="8" letter-spacing="-0.02em"><tspan x="408" y="460.909">SF: 1.0</tspan></text>
</g>
<g id="blocks.34">
<g id="Block_7">
<rect id="Rectangle 1_7" x="408" y="419" width="50" height="21" fill="#D9D9D9"/>
<text id="Block Text_7" fill="black" xml:space="preserve" style="white-space: pre" font-family="Inter" font-size="8" letter-spacing="-0.02em"><tspan x="408" y="426.909">Block 34</tspan></text>
</g>
<text id="blocks.34.sf" fill="black" xml:space="preserve" style="white-space: pre" font-family="Inter" font-size="8" letter-spacing="-0.02em"><tspan x="408" y="437.909">SF: 1.0</tspan></text>
</g>
<g id="blocks.33">
<g id="Block_8">
<rect id="Rectangle 1_8" x="408" y="396" width="50" height="21" fill="#D9D9D9"/>
<text id="Block Text_8" fill="black" xml:space="preserve" style="white-space: pre" font-family="Inter" font-size="8" letter-spacing="-0.02em"><tspan x="408" y="403.909">Block 33</tspan></text>
</g>
<text id="blocks.33.sf" fill="black" xml:space="preserve" style="white-space: pre" font-family="Inter" font-size="8" letter-spacing="-0.02em"><tspan x="408" y="414.909">SF: 1.0</tspan></text>
</g>
<g id="blocks.32">
<g id="Block_9">
<rect id="Rectangle 1_9" x="355" y="465" width="50" height="21" fill="#D9D9D9"/>
<text id="Block Text_9" fill="black" xml:space="preserve" style="white-space: pre" font-family="Inter" font-size="8" letter-spacing="-0.02em"><tspan x="355" y="472.909">Block 32</tspan></text>
</g>
<text id="blocks.32.sf" fill="black" xml:space="preserve" style="white-space: pre" font-family="Inter" font-size="8" letter-spacing="-0.02em"><tspan x="355" y="483.909">SF: 1.0</tspan></text>
</g>
<g id="blocks.31">
<g id="Block_10">
<rect id="Rectangle 1_10" x="355" y="442" width="50" height="21" fill="#D9D9D9"/>
<text id="Block Text_10" fill="black" xml:space="preserve" style="white-space: pre" font-family="Inter" font-size="8" letter-spacing="-0.02em"><tspan x="355" y="449.909">Block 31</tspan></text>
</g>
<text id="blocks.31.sf" fill="black" xml:space="preserve" style="white-space: pre" font-family="Inter" font-size="8" letter-spacing="-0.02em"><tspan x="355" y="460.909">SF: 1.0</tspan></text>
</g>
<g id="blocks.30">
<g id="Block_11">
<rect id="Rectangle 1_11" x="355" y="419" width="50" height="21" fill="#D9D9D9"/>
<text id="Block Text_11" fill="black" xml:space="preserve" style="white-space: pre" font-family="Inter" font-size="8" letter-spacing="-0.02em"><tspan x="355" y="426.909">Block 30</tspan></text>
</g>
<text id="blocks.30.sf" fill="black" xml:space="preserve" style="white-space: pre" font-family="Inter" font-size="8" letter-spacing="-0.02em"><tspan x="355" y="437.909">SF: 1.0</tspan></text>
</g>
<g id="blocks.29">
<g id="Block_12">
<rect id="Rectangle 1_12" x="355" y="396" width="50" height="21" fill="#D9D9D9"/>
<text id="Block Text_12" fill="black" xml:space="preserve" style="white-space: pre" font-family="Inter" font-size="8" letter-spacing="-0.02em"><tspan x="355" y="403.909">Block 29</tspan></text>
</g>
<text id="blocks.29.sf" fill="black" xml:space="preserve" style="white-space: pre" font-family="Inter" font-size="8" letter-spacing="-0.02em"><tspan x="355" y="414.909">SF: 1.0</tspan></text>
</g>
<text id="Blocks 29-40&#226;&#128;&#168;(Global structure/style)" fill="white" xml:space="preserve" style="white-space: pre" font-family="Inter" font-size="10" font-weight="bold" letter-spacing="-0.02em"><tspan x="400.931" y="377.636">Blocks 29-40&#x2028;</tspan><tspan x="377.595" y="389.636">(Global structure/style)</tspan></text>
<g id="Union">
<mask id="path-40-inside-1_0_1" fill="white">
<path d="M519 494H348V363H519V494Z"/>
</mask>
<path d="M519 494V495H520V494H519ZM348 494H347V495H348V494ZM348 363V362H347V363H348ZM519 363H520V362H519V363ZM519 494V493H348V494V495H519V494ZM348 494H349V363H348H347V494H348ZM348 363V364H519V363V362H348V363ZM519 363H518V494H519H520V363H519Z" fill="black" mask="url(#path-40-inside-1_0_1)"/>
</g>
</g>
<text id="Upper blocks&#194;&#160;(~29&#226;&#128;&#147;40) Abstract global structure, scene consistency, and possibly style traits." fill="white" xml:space="preserve" style="white-space: pre" font-family="Inter" font-size="10" letter-spacing="-0.02em"><tspan x="133" y="461.636">Upper blocks&#xa0;(~29&#x2013;40)&#10;</tspan><tspan x="133" y="473.636">Abstract global structure, scene consistency, &#10;</tspan><tspan x="133" y="485.636">and possibly style traits.&#10;</tspan></text>
<g id="G2 Intermediate Mapping">
<g id="blocks.28">
<g id="Block_13">
<rect id="Rectangle 1_13" x="348" y="298" width="50" height="21" fill="#D9D9D9"/>
<text id="Block Text_13" fill="black" xml:space="preserve" style="white-space: pre" font-family="Inter" font-size="8" letter-spacing="-0.02em"><tspan x="348" y="305.909">Block 28</tspan></text>
</g>
<text id="blocks.28.sf" fill="black" xml:space="preserve" style="white-space: pre" font-family="Inter" font-size="8" letter-spacing="-0.02em"><tspan x="348" y="316.909">SF: 1.0</tspan></text>
</g>
<g id="blocks.27">
<g id="Block_14">
<rect id="Rectangle 1_14" x="348" y="275" width="50" height="21" fill="#D9D9D9"/>
<text id="Block Text_14" fill="black" xml:space="preserve" style="white-space: pre" font-family="Inter" font-size="8" letter-spacing="-0.02em"><tspan x="348" y="282.909">Block 27</tspan></text>
</g>
<text id="blocks.27.sf" fill="black" xml:space="preserve" style="white-space: pre" font-family="Inter" font-size="8" letter-spacing="-0.02em"><tspan x="348" y="293.909">SF: 1.0</tspan></text>
</g>
<g id="blocks.26">
<g id="Block_15">
<rect id="Rectangle 1_15" x="348" y="252" width="50" height="21" fill="#D9D9D9"/>
<text id="Block Text_15" fill="black" xml:space="preserve" style="white-space: pre" font-family="Inter" font-size="8" letter-spacing="-0.02em"><tspan x="348" y="259.909">Block 26</tspan></text>
</g>
<text id="blocks.26.sf" fill="black" xml:space="preserve" style="white-space: pre" font-family="Inter" font-size="8" letter-spacing="-0.02em"><tspan x="348" y="270.909">SF: 1.0</tspan></text>
</g>
<g id="blocks.25">
<g id="Block_16">
<rect id="Rectangle 1_16" x="348" y="229" width="50" height="21" fill="#D9D9D9"/>
<text id="Block Text_16" fill="black" xml:space="preserve" style="white-space: pre" font-family="Inter" font-size="8" letter-spacing="-0.02em"><tspan x="348" y="236.909">Block 25</tspan></text>
</g>
<text id="blocks.25.sf" fill="black" xml:space="preserve" style="white-space: pre" font-family="Inter" font-size="8" letter-spacing="-0.02em"><tspan x="348" y="247.909">SF: 1.0</tspan></text>
</g>
<g id="blocks.24">
<g id="Block_17">
<rect id="Rectangle 1_17" x="295" y="298" width="50" height="21" fill="#D9D9D9"/>
<text id="Block Text_17" fill="black" xml:space="preserve" style="white-space: pre" font-family="Inter" font-size="8" letter-spacing="-0.02em"><tspan x="295" y="305.909">Block 24</tspan></text>
</g>
<text id="blocks.24.sf" fill="black" xml:space="preserve" style="white-space: pre" font-family="Inter" font-size="8" letter-spacing="-0.02em"><tspan x="295" y="316.909">SF: 1.0</tspan></text>
</g>
<g id="blocks.23">
<g id="Block_18">
<rect id="Rectangle 1_18" x="295" y="275" width="50" height="21" fill="#D9D9D9"/>
<text id="Block Text_18" fill="black" xml:space="preserve" style="white-space: pre" font-family="Inter" font-size="8" letter-spacing="-0.02em"><tspan x="295" y="282.909">Block 23</tspan></text>
</g>
<text id="blocks.23.sf" fill="black" xml:space="preserve" style="white-space: pre" font-family="Inter" font-size="8" letter-spacing="-0.02em"><tspan x="295" y="293.909">SF: 1.0</tspan></text>
</g>
<g id="blocks.22">
<g id="Block_19">
<rect id="Rectangle 1_19" x="295" y="252" width="50" height="21" fill="#D9D9D9"/>
<text id="Block Text_19" fill="black" xml:space="preserve" style="white-space: pre" font-family="Inter" font-size="8" letter-spacing="-0.02em"><tspan x="295" y="259.909">Block 22</tspan></text>
</g>
<text id="blocks.22.sf" fill="black" xml:space="preserve" style="white-space: pre" font-family="Inter" font-size="8" letter-spacing="-0.02em"><tspan x="295" y="270.909">SF: 1.0</tspan></text>
</g>
<g id="blocks.21">
<g id="Block_20">
<rect id="Rectangle 1_20" x="295" y="229" width="50" height="21" fill="#D9D9D9"/>
<text id="Block Text_20" fill="black" xml:space="preserve" style="white-space: pre" font-family="Inter" font-size="8" letter-spacing="-0.02em"><tspan x="295" y="236.909">Block 21</tspan></text>
</g>
<text id="blocks.21.sf" fill="black" xml:space="preserve" style="white-space: pre" font-family="Inter" font-size="8" letter-spacing="-0.02em"><tspan x="295" y="247.909">SF: 1.0</tspan></text>
</g>
<g id="blocks.20">
<g id="Block_21">
<rect id="Rectangle 1_21" x="242" y="298" width="50" height="21" fill="#D9D9D9"/>
<text id="Block Text_21" fill="black" xml:space="preserve" style="white-space: pre" font-family="Inter" font-size="8" letter-spacing="-0.02em"><tspan x="242" y="305.909">Block 20</tspan></text>
</g>
<text id="blocks.20.sf" fill="black" xml:space="preserve" style="white-space: pre" font-family="Inter" font-size="8" letter-spacing="-0.02em"><tspan x="242" y="316.909">SF: 1.0</tspan></text>
</g>
<g id="blocks.19">
<g id="Block_22">
<rect id="Rectangle 1_22" x="242" y="275" width="50" height="21" fill="#D9D9D9"/>
<text id="Block Text_22" fill="black" xml:space="preserve" style="white-space: pre" font-family="Inter" font-size="8" letter-spacing="-0.02em"><tspan x="242" y="282.909">Block 19</tspan></text>
</g>
<text id="blocks.19.sf" fill="black" xml:space="preserve" style="white-space: pre" font-family="Inter" font-size="8" letter-spacing="-0.02em"><tspan x="242" y="293.909">SF: 1.0</tspan></text>
</g>
<g id="blocks.18">
<g id="Block_23">
<rect id="Rectangle 1_23" x="242" y="252" width="50" height="21" fill="#D9D9D9"/>
<text id="Block Text_23" fill="black" xml:space="preserve" style="white-space: pre" font-family="Inter" font-size="8" letter-spacing="-0.02em"><tspan x="242" y="259.909">Block 18</tspan></text>
</g>
<text id="blocks.18.sf" fill="black" xml:space="preserve" style="white-space: pre" font-family="Inter" font-size="8" letter-spacing="-0.02em"><tspan x="242" y="270.909">SF: 1.0</tspan></text>
</g>
<g id="blocks.17">
<g id="Block_24">
<rect id="Rectangle 1_24" x="242" y="229" width="50" height="21" fill="#D9D9D9"/>
<text id="Block Text_24" fill="black" xml:space="preserve" style="white-space: pre" font-family="Inter" font-size="8" letter-spacing="-0.02em"><tspan x="242" y="236.909">Block 17</tspan></text>
</g>
<text id="blocks.17.sf" fill="black" xml:space="preserve" style="white-space: pre" font-family="Inter" font-size="8" letter-spacing="-0.02em"><tspan x="242" y="247.909">SF: 1.0</tspan></text>
</g>
<g id="blocks.16">
<g id="Block_25">
<rect id="Rectangle 1_25" x="189" y="298" width="50" height="21" fill="#D9D9D9"/>
<text id="Block Text_25" fill="black" xml:space="preserve" style="white-space: pre" font-family="Inter" font-size="8" letter-spacing="-0.02em"><tspan x="189" y="305.909">Block 16</tspan></text>
</g>
<text id="blocks.16.sf" fill="black" xml:space="preserve" style="white-space: pre" font-family="Inter" font-size="8" letter-spacing="-0.02em"><tspan x="189" y="316.909">SF: 1.0</tspan></text>
</g>
<g id="blocks.15">
<g id="Block_26">
<rect id="Rectangle 1_26" x="189" y="275" width="50" height="21" fill="#D9D9D9"/>
<text id="Block Text_26" fill="black" xml:space="preserve" style="white-space: pre" font-family="Inter" font-size="8" letter-spacing="-0.02em"><tspan x="189" y="282.909">Block 15</tspan></text>
</g>
<text id="blocks.15.sf" fill="black" xml:space="preserve" style="white-space: pre" font-family="Inter" font-size="8" letter-spacing="-0.02em"><tspan x="189" y="293.909">SF: 1.0</tspan></text>
</g>
<g id="blocks.14">
<g id="Block_27">
<rect id="Rectangle 1_27" x="189" y="252" width="50" height="21" fill="#D9D9D9"/>
<text id="Block Text_27" fill="black" xml:space="preserve" style="white-space: pre" font-family="Inter" font-size="8" letter-spacing="-0.02em"><tspan x="189" y="259.909">Block 14</tspan></text>
</g>
<text id="blocks.14.sf" fill="black" xml:space="preserve" style="white-space: pre" font-family="Inter" font-size="8" letter-spacing="-0.02em"><tspan x="189" y="270.909">SF: 1.0</tspan></text>
</g>
<g id="blocks.13">
<g id="Block_28">
<rect id="Rectangle 1_28" x="189" y="229" width="50" height="21" fill="#D9D9D9"/>
<text id="Block Text_28" fill="black" xml:space="preserve" style="white-space: pre" font-family="Inter" font-size="8" letter-spacing="-0.02em"><tspan x="189" y="236.909">Block 13</tspan></text>
</g>
<text id="blocks.13.sf" fill="black" xml:space="preserve" style="white-space: pre" font-family="Inter" font-size="8" letter-spacing="-0.02em"><tspan x="189" y="247.909">SF: 1.0</tspan></text>
</g>
<text id="Blocks 13-28&#226;&#128;&#168;(Intermediate mapping)" fill="white" xml:space="preserve" style="white-space: pre" font-family="Inter" font-size="10" font-weight="bold" letter-spacing="-0.02em"><tspan x="263.118" y="205.636">Blocks 13-28&#x2028;</tspan><tspan x="238.073" y="217.636">(Intermediate mapping)</tspan></text>
<g id="Union_2">
<mask id="path-92-inside-2_0_1" fill="white">
<path d="M405 326H184V189H405V326Z"/>
</mask>
<path d="M405 326V327H406V326H405ZM184 326H183V327H184V326ZM184 189V188H183V189H184ZM405 189H406V188H405V189ZM405 326V325H184V326V327H405V326ZM184 326H185V189H184H183V326H184ZM184 189V190H405V189V188H184V189ZM405 189H404V326H405H406V189H405Z" fill="black" mask="url(#path-92-inside-2_0_1)"/>
</g>
</g>
<text id="Middle blocks&#194;&#160;(~13&#226;&#128;&#147;28): Blend detail and structural reasoning, handling complex patterns." fill="white" xml:space="preserve" style="white-space: pre" font-family="Inter" font-size="10" letter-spacing="-0.02em"><tspan x="65" y="323.636">Middle blocks&#xa0;(~13&#x2013;28): &#10;</tspan><tspan x="65" y="335.636">Blend detail and structural reasoning, handling complex patterns.</tspan></text>
<g id="G1 Local detail features">
<g id="blocks.12">
<g id="Block_29">
<rect id="Rectangle 1_29" x="169" y="142" width="50" height="21" fill="#D9D9D9"/>
<text id="Block Text_29" fill="black" xml:space="preserve" style="white-space: pre" font-family="Inter" font-size="8" letter-spacing="-0.02em"><tspan x="169" y="149.909">Block 12</tspan></text>
</g>
<text id="blocks.12.sf" fill="black" xml:space="preserve" style="white-space: pre" font-family="Inter" font-size="8" letter-spacing="-0.02em"><tspan x="169" y="160.909">SF: 1.0</tspan></text>
</g>
<g id="blocks.11">
<g id="Block_30">
<rect id="Rectangle 1_30" x="169" y="119" width="50" height="21" fill="#D9D9D9"/>
<text id="Block Text_30" fill="black" xml:space="preserve" style="white-space: pre" font-family="Inter" font-size="8" letter-spacing="-0.02em"><tspan x="169" y="126.909">Block 11</tspan></text>
</g>
<text id="blocks.11.sf" fill="black" xml:space="preserve" style="white-space: pre" font-family="Inter" font-size="8" letter-spacing="-0.02em"><tspan x="169" y="137.909">SF: 1.0</tspan></text>
</g>
<g id="blocks.10">
<g id="Block_31">
<rect id="Rectangle 1_31" x="169" y="96" width="50" height="21" fill="#D9D9D9"/>
<text id="Block Text_31" fill="black" xml:space="preserve" style="white-space: pre" font-family="Inter" font-size="8" letter-spacing="-0.02em"><tspan x="169" y="103.909">Block 10</tspan></text>
</g>
<text id="blocks.10.sf" fill="black" xml:space="preserve" style="white-space: pre" font-family="Inter" font-size="8" letter-spacing="-0.02em"><tspan x="169" y="114.909">SF: 1.0</tspan></text>
</g>
<g id="blocks.9">
<g id="Block_32">
<rect id="Rectangle 1_32" x="169" y="73" width="50" height="21" fill="#D9D9D9"/>
<text id="Block Text_32" fill="black" xml:space="preserve" style="white-space: pre" font-family="Inter" font-size="8" letter-spacing="-0.02em"><tspan x="169" y="80.9091">Block 9</tspan></text>
</g>
<text id="blocks.9.sf" fill="black" xml:space="preserve" style="white-space: pre" font-family="Inter" font-size="8" letter-spacing="-0.02em"><tspan x="169" y="91.9091">SF: 1.0</tspan></text>
</g>
<g id="blocks.8">
<g id="Block_33">
<rect id="Rectangle 1_33" x="116" y="142" width="50" height="21" fill="#D9D9D9"/>
<text id="Block Text_33" fill="black" xml:space="preserve" style="white-space: pre" font-family="Inter" font-size="8" letter-spacing="-0.02em"><tspan x="116" y="149.909">Block 8</tspan></text>
</g>
<text id="blocks.8.sf" fill="black" xml:space="preserve" style="white-space: pre" font-family="Inter" font-size="8" letter-spacing="-0.02em"><tspan x="116" y="160.909">SF: 1.0</tspan></text>
</g>
<g id="blocks.6">
<g id="Block_34">
<rect id="Rectangle 1_34" x="116" y="96" width="50" height="21" fill="#D9D9D9"/>
<text id="Block Text_34" fill="black" xml:space="preserve" style="white-space: pre" font-family="Inter" font-size="8" letter-spacing="-0.02em"><tspan x="116" y="103.909">Block 6</tspan></text>
</g>
<text id="blocks.6.sf" fill="black" xml:space="preserve" style="white-space: pre" font-family="Inter" font-size="8" letter-spacing="-0.02em"><tspan x="116" y="114.909">SF: 1.0</tspan></text>
</g>
<g id="blocks.7">
<g id="Block_35">
<rect id="Rectangle 1_35" x="116" y="119" width="50" height="21" fill="#D9D9D9"/>
<text id="Block Text_35" fill="black" xml:space="preserve" style="white-space: pre" font-family="Inter" font-size="8" letter-spacing="-0.02em"><tspan x="116" y="126.909">Block 7</tspan></text>
</g>
<text id="blocks.7.sf" fill="black" xml:space="preserve" style="white-space: pre" font-family="Inter" font-size="8" letter-spacing="-0.02em"><tspan x="116" y="137.909">SF: 1.0</tspan></text>
</g>
<g id="blocks.5">
<g id="Block_36">
<rect id="Rectangle 1_36" x="116" y="73" width="50" height="21" fill="#D9D9D9"/>
<text id="Block Text_36" fill="black" xml:space="preserve" style="white-space: pre" font-family="Inter" font-size="8" letter-spacing="-0.02em"><tspan x="116" y="80.9091">Block 5</tspan></text>
</g>
<text id="blocks.5.sf" fill="black" xml:space="preserve" style="white-space: pre" font-family="Inter" font-size="8" letter-spacing="-0.02em"><tspan x="116" y="91.9091">SF: 1.0</tspan></text>
</g>
<g id="blocks.4">
<g id="Block_37">
<rect id="Rectangle 1_37" x="62" y="142" width="50" height="21" fill="#D9D9D9"/>
<text id="Block Text_37" fill="black" xml:space="preserve" style="white-space: pre" font-family="Inter" font-size="8" letter-spacing="-0.02em"><tspan x="62" y="149.909">Block 4</tspan></text>
</g>
<text id="blocks.4.sf" fill="black" xml:space="preserve" style="white-space: pre" font-family="Inter" font-size="8" letter-spacing="-0.02em"><tspan x="62" y="160.909">SF: 1.0</tspan></text>
</g>
<g id="blocks.3">
<g id="Block_38">
<rect id="Rectangle 1_38" x="63" y="119" width="50" height="21" fill="#D9D9D9"/>
<text id="Block Text_38" fill="black" xml:space="preserve" style="white-space: pre" font-family="Inter" font-size="8" letter-spacing="-0.02em"><tspan x="63" y="126.909">Block 3</tspan></text>
</g>
<text id="blocks.3.sf" fill="black" xml:space="preserve" style="white-space: pre" font-family="Inter" font-size="8" letter-spacing="-0.02em"><tspan x="63" y="137.909">SF: 1.0</tspan></text>
</g>
<g id="blocks.2">
<g id="Block_39">
<rect id="Rectangle 1_39" x="63" y="96" width="50" height="21" fill="#D9D9D9"/>
<text id="Block Text_39" fill="black" xml:space="preserve" style="white-space: pre" font-family="Inter" font-size="8" letter-spacing="-0.02em"><tspan x="63" y="103.909">Block 2</tspan></text>
</g>
<text id="blocks.2.sf" fill="black" xml:space="preserve" style="white-space: pre" font-family="Inter" font-size="8" letter-spacing="-0.02em"><tspan x="63" y="114.909">SF: 1.0</tspan></text>
</g>
<g id="blocks.1">
<g id="Block_40">
<rect id="Rectangle 1_40" x="63" y="73" width="50" height="21" fill="#D9D9D9"/>
<text id="Block Text_40" fill="black" xml:space="preserve" style="white-space: pre" font-family="Inter" font-size="8" letter-spacing="-0.02em"><tspan x="63" y="80.9091">Block 1</tspan></text>
</g>
<text id="blocks.1.sf" fill="black" xml:space="preserve" style="white-space: pre" font-family="Inter" font-size="8" letter-spacing="-0.02em"><tspan x="63" y="91.9091">SF: 1.0</tspan></text>
</g>
<text id="Blocks 1-12&#226;&#128;&#168;(Local Detail Features)" fill="white" xml:space="preserve" style="white-space: pre" font-family="Inter" font-size="10" font-weight="bold" letter-spacing="-0.02em"><tspan x="108.07" y="55.1364">Blocks 1-12&#x2028;</tspan><tspan x="82.117" y="67.1364">(Local Detail Features)</tspan></text>
<g id="Union_3">
<mask id="path-132-inside-3_0_1" fill="white">
<path d="M227 169H50V43H227V169Z"/>
</mask>
<path d="M227 169V170H228V169H227ZM50 169H49V170H50V169ZM50 43V42H49V43H50ZM227 43H228V42H227V43ZM227 169V168H50V169V170H227V169ZM50 169H51V43H50H49V169H50ZM50 43V44H227V43V42H50V43ZM227 43H226V169H227H228V43H227Z" fill="black" mask="url(#path-132-inside-3_0_1)"/>
</g>
</g>
<text id="Lower blocks&#194;&#160;(~1&#226;&#128;&#147;12): Focus on spatial detail, texture, and local features." fill="white" xml:space="preserve" style="white-space: pre" font-family="Inter" font-size="10" letter-spacing="-0.02em"><tspan x="244" y="54.6364">Lower blocks&#xa0;(~1&#x2013;12): &#10;</tspan><tspan x="244" y="66.6364">Focus on spatial detail, texture, and local features.</tspan></text>
</g>
<g id="Rectangle">
<rect x="40" y="4" width="54.4688" height="30" rx="3" fill="#444444"/>
<rect x="40.5" y="4.5" width="53.4688" height="29" rx="2.5" stroke="white" stroke-opacity="0.0980392"/>
</g>
<text id="WAN 2.1_2" fill="white" xml:space="preserve" style="white-space: pre" font-family="Inter" font-size="11" letter-spacing="0em"><tspan x="46" y="21.5">WAN 2.1</tspan></text>
</svg>