<svg width="580" height="550" viewBox="0 0 580 550" fill="none" xmlns="http://www.w3.org/2000/svg">
<g id="DiT">
<path d="M40 42C40 40.8954 40.8954 40 42 40H538C539.105 40 540 40.8954 540 42V508C540 509.105 539.105 510 538 510H42C40.8954 510 40 509.105 40 508V42Z" fill="#444444"/>
<path d="M42 40V41H538V40V39H42V40ZM540 42H539V508H540H541V42H540ZM538 510V509H42V510V511H538V510ZM40 508H41V42H40H39V508H40ZM42 510V509C41.4477 509 41 508.552 41 508H40H39C39 509.657 40.3432 511 42 511V510ZM540 508H539C539 508.552 538.552 509 538 509V510V511C539.657 511 541 509.657 541 508H540ZM538 40V41C538.552 41 539 41.4477 539 42H540H541C541 40.3431 539.657 39 538 39V40ZM42 40V39C40.3432 39 39 40.3431 39 42H40H41C41 41.4477 41.4477 41 42 41V40Z" fill="white" fill-opacity="0.1"/>
<text fill="white" xml:space="preserve" style="white-space: pre" font-family="Inter" font-size="14" font-weight="bold" letter-spacing="-0.02em">
<tspan x="245" y="25">DiT Architecture</tspan>
</text>

<!-- Layer Group 7 (Layers 35-39) -->
<g id="layers_group.7">
    <rect id="layers_group.7.rect" x="80" y="60" width="420" height="50" fill="#D9D9D9"/>
    <text fill="black" xml:space="preserve" style="white-space: pre" font-family="Inter" font-size="12" font-weight="bold" letter-spacing="-0.02em">
    <tspan x="90" y="80">Group 7 (Layers 35-39)</tspan>
    </text>
    <text id="layers_group.7.sf" fill="black" xml:space="preserve" style="white-space: pre" font-family="Inter" font-size="10" font-weight="bold" letter-spacing="-0.02em">
    <tspan x="90" y="100">SF: 1.00</tspan>
    </text>
</g>

<!-- Layer Group 6 (Layers 30-34) -->
<g id="layers_group.6">
    <rect id="layers_group.6.rect" x="80" y="120" width="420" height="50" fill="#D9D9D9"/>
    <text fill="black" xml:space="preserve" style="white-space: pre" font-family="Inter" font-size="12" font-weight="bold" letter-spacing="-0.02em">
    <tspan x="90" y="140">Group 6 (Layers 30-34)</tspan>
    </text>
    <text id="layers_group.6.sf" fill="black" xml:space="preserve" style="white-space: pre" font-family="Inter" font-size="10" font-weight="bold" letter-spacing="-0.02em">
    <tspan x="90" y="160">SF: 1.00</tspan>
    </text>
</g>

<!-- Layer Group 5 (Layers 25-29) -->
<g id="layers_group.5">
    <rect id="layers_group.5.rect" x="80" y="180" width="420" height="50" fill="#D9D9D9"/>
    <text fill="black" xml:space="preserve" style="white-space: pre" font-family="Inter" font-size="12" font-weight="bold" letter-spacing="-0.02em">
    <tspan x="90" y="200">Group 5 (Layers 25-29)</tspan>
    </text>
    <text id="layers_group.5.sf" fill="black" xml:space="preserve" style="white-space: pre" font-family="Inter" font-size="10" font-weight="bold" letter-spacing="-0.02em">
    <tspan x="90" y="220">SF: 1.00</tspan>
    </text>
</g>

<!-- Layer Group 4 (Layers 20-24) -->
<g id="layers_group.4">
    <rect id="layers_group.4.rect" x="80" y="240" width="420" height="50" fill="#D9D9D9"/>
    <text fill="black" xml:space="preserve" style="white-space: pre" font-family="Inter" font-size="12" font-weight="bold" letter-spacing="-0.02em">
    <tspan x="90" y="260">Group 4 (Layers 20-24)</tspan>
    </text>
    <text id="layers_group.4.sf" fill="black" xml:space="preserve" style="white-space: pre" font-family="Inter" font-size="10" font-weight="bold" letter-spacing="-0.02em">
    <tspan x="90" y="280">SF: 1.00</tspan>
    </text>
</g>

<!-- Layer Group 3 (Layers 15-19) -->
<g id="layers_group.3">
    <rect id="layers_group.3.rect" x="80" y="300" width="420" height="50" fill="#D9D9D9"/>
    <text fill="black" xml:space="preserve" style="white-space: pre" font-family="Inter" font-size="12" font-weight="bold" letter-spacing="-0.02em">
    <tspan x="90" y="320">Group 3 (Layers 15-19)</tspan>
    </text>
    <text id="layers_group.3.sf" fill="black" xml:space="preserve" style="white-space: pre" font-family="Inter" font-size="10" font-weight="bold" letter-spacing="-0.02em">
    <tspan x="90" y="340">SF: 1.00</tspan>
    </text>
</g>

<!-- Layer Group 2 (Layers 10-14) -->
<g id="layers_group.2">
    <rect id="layers_group.2.rect" x="80" y="360" width="420" height="50" fill="#D9D9D9"/>
    <text fill="black" xml:space="preserve" style="white-space: pre" font-family="Inter" font-size="12" font-weight="bold" letter-spacing="-0.02em">
    <tspan x="90" y="380">Group 2 (Layers 10-14)</tspan>
    </text>
    <text id="layers_group.2.sf" fill="black" xml:space="preserve" style="white-space: pre" font-family="Inter" font-size="10" font-weight="bold" letter-spacing="-0.02em">
    <tspan x="90" y="400">SF: 1.00</tspan>
    </text>
</g>

<!-- Layer Group 1 (Layers 5-9) -->
<g id="layers_group.1">
    <rect id="layers_group.1.rect" x="80" y="420" width="420" height="50" fill="#D9D9D9"/>
    <text fill="black" xml:space="preserve" style="white-space: pre" font-family="Inter" font-size="12" font-weight="bold" letter-spacing="-0.02em">
    <tspan x="90" y="440">Group 1 (Layers 5-9)</tspan>
    </text>
    <text id="layers_group.1.sf" fill="black" xml:space="preserve" style="white-space: pre" font-family="Inter" font-size="10" font-weight="bold" letter-spacing="-0.02em">
    <tspan x="90" y="460">SF: 1.00</tspan>
    </text>
</g>

<!-- Layer Group 0 (Layers 0-4) -->
<g id="layers_group.0">
    <rect id="layers_group.0.rect" x="80" y="480" width="420" height="50" fill="#D9D9D9"/>
    <text fill="black" xml:space="preserve" style="white-space: pre" font-family="Inter" font-size="12" font-weight="bold" letter-spacing="-0.02em">
    <tspan x="90" y="500">Group 0 (Layers 0-4)</tspan>
    </text>
    <text id="layers_group.0.sf" fill="black" xml:space="preserve" style="white-space: pre" font-family="Inter" font-size="10" font-weight="bold" letter-spacing="-0.02em">
    <tspan x="90" y="520">SF: 1.00</tspan>
    </text>
</g>

</g>
</svg>
